<svg xmlns="http://www.w3.org/2000/svg" xmlns:xlink="http://www.w3.org/1999/xlink" version="1.1" x="0px" y="0px" viewBox="0 0 100 100" enable-background="new 0 0 100 100" xml:space="preserve">
  <line fill="#000000" stroke="#231F20" stroke-width="2" stroke-linecap="round" stroke-linejoin="round" stroke-miterlimit="10" x1="90.603" y1="166.9" x2="12.923" y2="166.9"></line>
  <g>
    <g>
      <path fill="#000000" stroke="#231F20" stroke-width="2" stroke-linecap="round" stroke-linejoin="round" stroke-miterlimit="10" d="    M87.584,153.852c0.641-2.439-3.989-5.633-6.282-6.117c-7.581-1.697-17.889-3.787-17.889-3.787L45.34,117.658l-4.206,1.482    l2.619,20.695c0,0-22.57-4.814-25.226-5.381c-2.295-0.479,7.745,10.277,14.081,12.818l38.965,8.279c0,0,3.855,0.814,7.275,1.539    C81.134,157.572,87.061,156.693,87.584,153.852z"></path>
      <polygon fill="#000000" stroke="#231F20" stroke-width="2" stroke-linecap="round" stroke-linejoin="round" stroke-miterlimit="10" points="    18.908,119.57 15.88,120.383 17.294,130.461 27.075,132.494   "></polygon>
    </g>
  </g>
  <g>
    <path fill="#000000" d="M90.603,76.021h-77.68c-0.552,0-1-0.447-1-1s0.448-1,1-1h77.68c0.553,0,1,0.447,1,1   S91.155,76.021,90.603,76.021z"></path>
  </g>
  <g>
    <g>
      <g>
        <path fill="#000000" d="M80.289,66.336L80.289,66.336c-0.633,0-1.187-0.049-1.646-0.145L32.4,56.373     c-0.056-0.014-0.111-0.029-0.164-0.051C27.02,54.23,16.771,44.804,17.215,42.506c0.129-0.668,0.748-1.073,1.518-0.908     l23.852,5.088l-2.442-19.298c-0.059-0.468,0.216-0.913,0.66-1.069l4.206-1.482c0.424-0.147,0.9,0.004,1.156,0.377l17.844,25.955     c1.969,0.402,10.845,2.219,17.513,3.711c1.979,0.418,5.172,2.457,6.467,4.555c0.604,0.979,0.794,1.918,0.563,2.793     C88.002,65.223,83.308,66.336,80.289,66.336z M32.902,54.434l46.153,9.801c0.318,0.066,0.746,0.102,1.233,0.102     c2.764,0,6.035-1.045,6.312-2.543c0.122-0.479-0.105-0.969-0.315-1.311c-1.051-1.703-3.83-3.361-5.19-3.648     c-7.496-1.678-17.777-3.766-17.881-3.785c-0.254-0.053-0.478-0.201-0.625-0.414L44.95,26.978l-2.723,0.959l2.518,19.895     c0.041,0.322-0.077,0.643-0.315,0.862c-0.238,0.219-0.568,0.315-0.886,0.241l-23.513-5.016     C22.279,46.718,28.423,52.598,32.902,54.434z"></path>
      </g>
      <g>
        <path fill="#000000" d="M27.075,41.615c-0.067,0-0.136-0.007-0.204-0.021l-9.781-2.033c-0.412-0.086-0.728-0.423-0.786-0.841     L14.89,28.642c-0.07-0.5,0.243-0.974,0.731-1.104l3.028-0.812c0.422-0.115,0.87,0.061,1.104,0.432l8.166,12.923     c0.215,0.339,0.206,0.773-0.023,1.104C27.708,41.458,27.398,41.615,27.075,41.615z M18.187,37.746l6.784,1.41l-6.515-10.308     l-1.463,0.393L18.187,37.746z"></path>
      </g>
    </g>
  </g>
</svg>